<svg width="24" height="24" viewBox="0 0 24 24" fill="none" xmlns="http://www.w3.org/2000/svg">
<path d="M13.06 3.28292C12.7788 3.00202 12.3975 2.84424 12 2.84424C11.6025 2.84424 11.2213 3.00202 10.94 3.28292L5.28103 8.93892C4.99964 9.22031 4.84155 9.60197 4.84155 9.99992C4.84155 10.3979 4.99964 10.7795 5.28103 11.0609C5.56243 11.3423 5.94408 11.5004 6.34203 11.5004C6.73999 11.5004 7.12164 11.3423 7.40303 11.0609L10.5 7.96492V19.4999C10.5 19.8977 10.6581 20.2793 10.9394 20.5606C11.2207 20.8419 11.6022 20.9999 12 20.9999C12.3979 20.9999 12.7794 20.8419 13.0607 20.5606C13.342 20.2793 13.5 19.8977 13.5 19.4999V7.96492L16.596 11.0609C16.7354 11.2003 16.9008 11.3108 17.0828 11.3862C17.2649 11.4616 17.46 11.5004 17.657 11.5004C17.8541 11.5004 18.0492 11.4616 18.2312 11.3862C18.4133 11.3108 18.5787 11.2003 18.718 11.0609C18.8574 10.9216 18.9679 10.7562 19.0433 10.5741C19.1187 10.3921 19.1575 10.197 19.1575 9.99992C19.1575 9.80287 19.1187 9.60776 19.0433 9.42571C18.9679 9.24366 18.8574 9.07825 18.718 8.93892L13.06 3.28292Z" fill="black"/>
</svg>
