<svg width="24" height="24" viewBox="0 0 24 24" fill="none" xmlns="http://www.w3.org/2000/svg">
<path fill-rule="evenodd" clip-rule="evenodd" d="M19.512 9.09821C20.583 10.1692 19.825 12.0002 18.31 12.0002H16V20.0002C16 20.5306 15.7893 21.0394 15.4143 21.4144C15.0392 21.7895 14.5305 22.0002 14 22.0002H10C9.46961 22.0002 8.9609 21.7895 8.58583 21.4144C8.21076 21.0394 8.00004 20.5306 8.00004 20.0002V12.0002H5.69004C4.17504 12.0002 3.41704 10.1692 4.48804 9.09821L10.939 2.64621C11.2203 2.365 11.6018 2.20703 11.9995 2.20703C12.3973 2.20703 12.7788 2.365 13.06 2.64621L19.512 9.09821Z" fill="black"/>
</svg>
