<svg width="50" height="50" viewBox="0 0 50 50" fill="none" xmlns="http://www.w3.org/2000/svg">
<rect width="50" height="50" fill="#29292F"/>
<path d="M18.62 5.6619C18.8098 5.715 18.9873 5.80499 19.1423 5.92673C19.2973 6.04846 19.4268 6.19956 19.5234 6.37137C19.62 6.54318 19.6817 6.73234 19.7052 6.92804C19.7286 7.12374 19.7133 7.32214 19.66 7.5119L15.229 23.2989C15.1216 23.682 14.8664 24.0067 14.5195 24.2017C14.1727 24.3966 13.7626 24.4458 13.3795 24.3384C12.9964 24.231 12.6716 23.9758 12.4767 23.6289C12.2817 23.2821 12.2326 22.872 12.34 22.4889L16.771 6.6999C16.8242 6.51018 16.9143 6.3328 17.036 6.1779C17.1578 6.023 17.3089 5.89361 17.4807 5.79713C17.6525 5.70064 17.8417 5.63895 18.0373 5.61557C18.233 5.5922 18.4313 5.6076 18.621 5.6609L18.62 5.6619ZM11.56 9.6969C11.8409 9.97815 11.9987 10.3594 11.9987 10.7569C11.9987 11.1544 11.8409 11.5356 11.56 11.8169L8.37998 14.9999L11.562 18.1819C11.8432 18.4633 12.0012 18.8449 12.0011 19.2427C12.001 19.6406 11.8429 20.0221 11.5615 20.3034C11.2801 20.5847 10.8985 20.7426 10.5006 20.7425C10.1028 20.7424 9.72124 20.5843 9.43998 20.3029L5.19698 16.0599C4.91608 15.7786 4.7583 15.3974 4.7583 14.9999C4.7583 14.6024 4.91608 14.2211 5.19698 13.9399L9.43898 9.6969C9.57828 9.55751 9.74368 9.44693 9.92573 9.37149C10.1078 9.29605 10.3029 9.25722 10.5 9.25722C10.697 9.25722 10.8922 9.29605 11.0742 9.37149C11.2563 9.44693 11.4207 9.55751 11.56 9.6969ZM20.44 11.8169C20.2926 11.6796 20.1744 11.514 20.0924 11.33C20.0104 11.146 19.9664 10.9473 19.9628 10.7459C19.9592 10.5445 19.9963 10.3445 20.0717 10.1577C20.1472 9.97092 20.2595 9.80126 20.4019 9.65882C20.5443 9.51638 20.714 9.40409 20.9008 9.32865C21.0876 9.25321 21.2876 9.21616 21.489 9.21971C21.6904 9.22327 21.8891 9.26735 22.0731 9.34933C22.2571 9.43132 22.4227 9.54952 22.56 9.6969L26.803 13.9389C27.0842 14.2202 27.2422 14.6017 27.2422 14.9994C27.2422 15.3971 27.0842 15.7786 26.803 16.0599L22.561 20.3029C22.4217 20.4422 22.2564 20.5528 22.0744 20.6282C21.8924 20.7036 21.6973 20.7425 21.5003 20.7425C21.3033 20.7426 21.1083 20.7038 20.9262 20.6285C20.7442 20.5531 20.5788 20.4427 20.4395 20.3034C20.3001 20.1641 20.1896 19.9988 20.1142 19.8168C20.0387 19.6348 19.9999 19.4397 19.9999 19.2427C19.9998 19.0457 20.0386 18.8507 20.1139 18.6686C20.1893 18.4866 20.2997 18.3212 20.439 18.1819L23.621 14.9999L20.44 11.8169Z" fill="#313037"/>
</svg>
