<svg width="24" height="24" viewBox="0 0 24 24" fill="none" xmlns="http://www.w3.org/2000/svg">
<path d="M4.616 17C4.15533 17 3.771 16.846 3.463 16.538C3.155 16.23 3.00067 15.8433 3 15.378V8.622C3 8.15734 3.15433 7.77067 3.463 7.462C3.77167 7.15334 4.15567 6.99934 4.615 7H19.385C19.845 7 20.229 7.15434 20.537 7.463C20.845 7.77167 20.9993 8.158 21 8.622V15.378C21 15.8427 20.8457 16.2293 20.537 16.538C20.2283 16.8467 19.8443 17.0007 19.385 17H4.616ZM7.5 14.5H8.5V12.5H10.5V11.5H8.5V9.5H7.5V11.5H5.5V12.5H7.5V14.5ZM14.498 14.5C14.7753 14.5 15.0117 14.403 15.207 14.209C15.4023 14.015 15.5 13.7793 15.5 13.502C15.5 13.2247 15.403 12.9883 15.209 12.793C15.015 12.5977 14.7793 12.5 14.502 12.5C14.2247 12.5 13.9883 12.597 13.793 12.791C13.5977 12.985 13.5 13.2207 13.5 13.498C13.5 13.7753 13.597 14.0117 13.791 14.207C13.985 14.4023 14.2207 14.5 14.498 14.5ZM17.498 11.5C17.7747 11.5 18.011 11.403 18.207 11.209C18.403 11.015 18.5007 10.7793 18.5 10.502C18.4993 10.2247 18.4023 9.98834 18.209 9.793C18.0157 9.59767 17.78 9.5 17.502 9.5C17.224 9.5 16.9877 9.597 16.793 9.791C16.5983 9.985 16.5007 10.2207 16.5 10.498C16.4993 10.7753 16.5963 11.0117 16.791 11.207C16.9857 11.4023 17.2213 11.5 17.498 11.5Z" fill="black"/>
</svg>
