<svg width="24" height="24" viewBox="0 0 24 24" fill="none" xmlns="http://www.w3.org/2000/svg">
<path d="M4 18C3.45 18 2.97933 17.8043 2.588 17.413C2.19667 17.0217 2.00067 16.5507 2 16V8C2 7.45 2.196 6.97933 2.588 6.588C2.98 6.19667 3.45067 6.00067 4 6H20C20.55 6 21.021 6.196 21.413 6.588C21.805 6.98 22.0007 7.45067 22 8V16C22 16.55 21.8043 17.021 21.413 17.413C21.0217 17.805 20.5507 18.0007 20 18H4ZM7 15H9V13H11V11H9V9H7V11H5V13H7V15ZM14.5 15C14.9167 15 15.271 14.8543 15.563 14.563C15.855 14.2717 16.0007 13.9173 16 13.5C15.9993 13.0827 15.8537 12.7287 15.563 12.438C15.2723 12.1473 14.918 12.0013 14.5 12C14.082 11.9987 13.728 12.1447 13.438 12.438C13.148 12.7313 13.002 13.0853 13 13.5C12.998 13.9147 13.144 14.269 13.438 14.563C13.732 14.857 14.086 15.0027 14.5 15ZM17.5 12C17.9167 12 18.271 11.8543 18.563 11.563C18.855 11.2717 19.0007 10.9173 19 10.5C18.9993 10.0827 18.8537 9.72867 18.563 9.438C18.2723 9.14733 17.918 9.00133 17.5 9C17.082 8.99867 16.728 9.14467 16.438 9.438C16.148 9.73133 16.002 10.0853 16 10.5C15.998 10.9147 16.144 11.269 16.438 11.563C16.732 11.857 17.086 12.0027 17.5 12Z" fill="black"/>
</svg>
