<svg width="24" height="24" viewBox="0 0 24 24" fill="none" xmlns="http://www.w3.org/2000/svg">
<path d="M12 13.114L7.75399 17.354C7.66065 17.4473 7.54699 17.4983 7.41299 17.507C7.27899 17.5157 7.15665 17.4647 7.04599 17.354C6.93932 17.2473 6.88599 17.1293 6.88599 17C6.88599 16.8707 6.93932 16.7527 7.04599 16.646L11.435 12.258C11.5217 12.1707 11.6107 12.1093 11.702 12.074C11.7933 12.0387 11.8927 12.021 12 12.021C12.1073 12.021 12.2067 12.0387 12.298 12.074C12.3893 12.1093 12.4787 12.1707 12.566 12.258L16.954 16.646C17.0473 16.7393 17.0983 16.853 17.107 16.987C17.1157 17.121 17.0647 17.2433 16.954 17.354C16.8473 17.4607 16.7293 17.514 16.6 17.514C16.4707 17.514 16.3527 17.4607 16.246 17.354L12 13.114ZM12 7.114L7.75399 11.354C7.66065 11.4473 7.54699 11.4983 7.41299 11.507C7.27899 11.5157 7.15665 11.4647 7.04599 11.354C6.93932 11.2473 6.88599 11.1293 6.88599 11C6.88599 10.8707 6.93932 10.7527 7.04599 10.646L11.435 6.258C11.5217 6.17066 11.6107 6.10933 11.702 6.074C11.7933 6.03866 11.8927 6.021 12 6.021C12.1073 6.021 12.2067 6.03866 12.298 6.074C12.3893 6.10933 12.4787 6.17066 12.566 6.258L16.954 10.646C17.0473 10.7393 17.0983 10.853 17.107 10.987C17.1157 11.121 17.0647 11.2433 16.954 11.354C16.8473 11.4607 16.7293 11.514 16.6 11.514C16.4707 11.514 16.3527 11.4607 16.246 11.354L12 7.114Z" fill="black"/>
</svg>
