<svg width="24" height="24" viewBox="0 0 24 24" fill="none" xmlns="http://www.w3.org/2000/svg">
<path d="M12 13.8248L8.10005 17.6998C7.91672 17.8832 7.68772 17.9792 7.41305 17.9878C7.13838 17.9965 6.90072 17.9005 6.70005 17.6998C6.51672 17.5165 6.42505 17.2832 6.42505 16.9998C6.42505 16.7165 6.51672 16.4832 6.70005 16.2998L11.3 11.6998C11.4 11.5998 11.5084 11.5288 11.625 11.4868C11.7417 11.4448 11.8667 11.4242 12 11.4248C12.1334 11.4255 12.2584 11.4462 12.375 11.4868C12.4917 11.5275 12.6 11.5985 12.7 11.6998L17.3 16.2998C17.4834 16.4832 17.5794 16.7125 17.588 16.9878C17.5967 17.2632 17.5007 17.5005 17.3 17.6998C17.1167 17.8832 16.8834 17.9748 16.6 17.9748C16.3167 17.9748 16.0834 17.8832 15.9 17.6998L12 13.8248ZM12 7.82482L8.10005 11.6998C7.91672 11.8832 7.68772 11.9792 7.41305 11.9878C7.13838 11.9965 6.90072 11.9005 6.70005 11.6998C6.51672 11.5165 6.42505 11.2832 6.42505 10.9998C6.42505 10.7165 6.51672 10.4832 6.70005 10.2998L11.3 5.69982C11.4 5.59982 11.5084 5.52915 11.625 5.48782C11.7417 5.44649 11.8667 5.42549 12 5.42482C12.1334 5.42415 12.2584 5.44515 12.375 5.48782C12.4917 5.53049 12.6 5.60115 12.7 5.69982L17.3 10.2998C17.4834 10.4832 17.5794 10.7125 17.588 10.9878C17.5967 11.2632 17.5007 11.5005 17.3 11.6998C17.1167 11.8832 16.8834 11.9748 16.6 11.9748C16.3167 11.9748 16.0834 11.8832 15.9 11.6998L12 7.82482Z" fill="black"/>
</svg>
