<svg width="24" height="24" viewBox="0 0 24 24" fill="none" xmlns="http://www.w3.org/2000/svg">
<path fill-rule="evenodd" clip-rule="evenodd" d="M14.9999 3.25C15.1988 3.25 15.3896 3.32902 15.5302 3.46967C15.6709 3.61032 15.7499 3.80109 15.7499 4V5C15.7499 5.46413 15.5655 5.90925 15.2374 6.23744C14.9092 6.56563 14.464 6.75 13.9999 6.75H12.9999C12.9336 6.75 12.87 6.77634 12.8231 6.82322C12.7763 6.87011 12.7499 6.9337 12.7499 7V8H13.1719C15.7119 8 16.9809 8 17.9569 8.614C18.2043 8.76933 18.4319 8.95 18.6399 9.156C19.4599 9.966 19.7499 11.203 20.3269 13.676L21.3499 18.049C21.5103 18.733 21.4132 19.4522 21.077 20.0691C20.7408 20.686 20.1892 21.1575 19.5275 21.3935C18.8657 21.6295 18.1402 21.6135 17.4895 21.3485C16.8388 21.0835 16.3085 20.5882 15.9999 19.957L15.8799 19.711C15.6165 19.1725 15.2072 18.7188 14.6985 18.4017C14.1899 18.0845 13.6024 17.9165 13.0029 17.917H10.9979C10.3986 17.9167 9.81133 18.0847 9.30287 18.4019C8.79441 18.7191 8.38522 19.1727 8.12192 19.711L8.00192 19.957C7.6933 20.5882 7.16301 21.0835 6.51232 21.3485C5.86163 21.6135 5.13613 21.6295 4.47438 21.3935C3.81263 21.1575 3.261 20.686 2.92483 20.0691C2.58866 19.4522 2.4915 18.733 2.65192 18.049L3.67392 13.675C4.25192 11.203 4.54092 9.967 5.35992 9.156C5.56747 8.95093 5.79683 8.76918 6.04392 8.614C7.01992 8 8.28992 8 10.8299 8H11.2519V7C11.2519 6.034 12.0349 5.25 13.0019 5.25H14.0019C14.0682 5.25 14.1318 5.22366 14.1787 5.17678C14.2256 5.12989 14.2519 5.0663 14.2519 5V4C14.2519 3.80109 14.3309 3.61032 14.4716 3.46967C14.6122 3.32902 14.803 3.25 15.0019 3.25M15.9999 12C15.9999 12.2652 15.8946 12.5196 15.707 12.7071C15.5195 12.8946 15.2651 13 14.9999 13C14.7347 13 14.4803 12.8946 14.2928 12.7071C14.1053 12.5196 13.9999 12.2652 13.9999 12C13.9999 11.7348 14.1053 11.4804 14.2928 11.2929C14.4803 11.1054 14.7347 11 14.9999 11C15.2651 11 15.5195 11.1054 15.707 11.2929C15.8946 11.4804 15.9999 11.7348 15.9999 12ZM8.49992 11.25C8.69883 11.25 8.88959 11.329 9.03025 11.4697C9.1709 11.6103 9.24992 11.8011 9.24992 12V12.75H9.99992C10.1988 12.75 10.3896 12.829 10.5302 12.9697C10.6709 13.1103 10.7499 13.3011 10.7499 13.5C10.7499 13.6989 10.6709 13.8897 10.5302 14.0303C10.3896 14.171 10.1988 14.25 9.99992 14.25H9.24992V15C9.24992 15.1989 9.1709 15.3897 9.03025 15.5303C8.88959 15.671 8.69883 15.75 8.49992 15.75C8.30101 15.75 8.11024 15.671 7.96959 15.5303C7.82894 15.3897 7.74992 15.1989 7.74992 15V14.25H6.99992C6.80101 14.25 6.61024 14.171 6.46959 14.0303C6.32893 13.8897 6.24992 13.6989 6.24992 13.5C6.24992 13.3011 6.32893 13.1103 6.46959 12.9697C6.61024 12.829 6.80101 12.75 6.99992 12.75H7.74992V12C7.74992 11.8011 7.82894 11.6103 7.96959 11.4697C8.11024 11.329 8.30101 11.25 8.49992 11.25ZM16.9999 15.5C17.2651 15.5 17.5195 15.3946 17.707 15.2071C17.8946 15.0196 17.9999 14.7652 17.9999 14.5C17.9999 14.2348 17.8946 13.9804 17.707 13.7929C17.5195 13.6054 17.2651 13.5 16.9999 13.5C16.7347 13.5 16.4803 13.6054 16.2928 13.7929C16.1053 13.9804 15.9999 14.2348 15.9999 14.5C15.9999 14.7652 16.1053 15.0196 16.2928 15.2071C16.4803 15.3946 16.7347 15.5 16.9999 15.5Z" fill="black"/>
</svg>
