<svg width="24" height="24" viewBox="0 0 24 24" fill="none" xmlns="http://www.w3.org/2000/svg">
<path fill-rule="evenodd" clip-rule="evenodd" d="M20.536 20.536C22 19.07 22 16.714 22 12C22 7.286 22 4.929 20.535 3.464C19.072 2 16.714 2 12 2C7.286 2 4.929 2 3.464 3.464C2 4.93 2 7.286 2 12C2 16.714 2 19.071 3.464 20.535C4.93 22 7.286 22 12 22C16.714 22 19.071 22 20.535 20.535M14.827 8.421C15.0259 8.421 15.2167 8.50002 15.3573 8.64067C15.498 8.78132 15.577 8.97209 15.577 9.171V13.413C15.577 13.6119 15.498 13.8027 15.3573 13.9433C15.2167 14.084 15.0259 14.163 14.827 14.163C14.6281 14.163 14.4373 14.084 14.2967 13.9433C14.156 13.8027 14.077 13.6119 14.077 13.413V10.981L9.702 15.36C9.63334 15.4337 9.55054 15.4928 9.45854 15.5338C9.36654 15.5748 9.26723 15.5968 9.16652 15.5986C9.06582 15.6004 8.96579 15.5818 8.8724 15.5441C8.77901 15.5064 8.69418 15.4503 8.62296 15.379C8.55174 15.3078 8.4956 15.223 8.45788 15.1296C8.42016 15.0362 8.40163 14.9362 8.40341 14.8355C8.40518 14.7348 8.42723 14.6355 8.46822 14.5435C8.50921 14.4515 8.56831 14.3687 8.642 14.3L13.018 9.923H10.586C10.3871 9.923 10.1963 9.84398 10.0557 9.70333C9.91502 9.56268 9.836 9.37191 9.836 9.173C9.836 8.97409 9.91502 8.78332 10.0557 8.64267C10.1963 8.50202 10.3871 8.423 10.586 8.423L14.827 8.421Z" fill="black"/>
</svg>
