<svg width="70" height="70" viewBox="0 0 70 70" fill="none" xmlns="http://www.w3.org/2000/svg">
<rect width="70" height="70" fill="#29292F"/>
<path d="M37.62 6.6619C37.8098 6.715 37.9873 6.80499 38.1423 6.92673C38.2973 7.04846 38.4268 7.19956 38.5234 7.37137C38.62 7.54318 38.6817 7.73234 38.7052 7.92804C38.7286 8.12374 38.7133 8.32214 38.66 8.5119L34.229 24.2989C34.1216 24.682 33.8664 25.0067 33.5195 25.2017C33.1727 25.3966 32.7626 25.4458 32.3795 25.3384C31.9964 25.231 31.6716 24.9758 31.4767 24.6289C31.2817 24.2821 31.2326 23.872 31.34 23.4889L35.771 7.6999C35.8242 7.51018 35.9143 7.3328 36.036 7.1779C36.1578 7.023 36.3089 6.89361 36.4807 6.79713C36.6525 6.70064 36.8417 6.63895 37.0373 6.61557C37.233 6.5922 37.4313 6.6076 37.621 6.6609L37.62 6.6619ZM30.56 10.6969C30.8409 10.9781 30.9987 11.3594 30.9987 11.7569C30.9987 12.1544 30.8409 12.5356 30.56 12.8169L27.38 15.9999L30.562 19.1819C30.8432 19.4633 31.0012 19.8449 31.0011 20.2427C31.001 20.6406 30.8429 21.0221 30.5615 21.3034C30.2801 21.5847 29.8985 21.7426 29.5006 21.7425C29.1028 21.7424 28.7212 21.5843 28.44 21.3029L24.197 17.0599C23.9161 16.7786 23.7583 16.3974 23.7583 15.9999C23.7583 15.6024 23.9161 15.2211 24.197 14.9399L28.439 10.6969C28.5783 10.5575 28.7437 10.4469 28.9257 10.3715C29.1078 10.296 29.3029 10.2572 29.5 10.2572C29.697 10.2572 29.8922 10.296 30.0742 10.3715C30.2563 10.4469 30.4207 10.5575 30.56 10.6969ZM39.44 12.8169C39.2926 12.6796 39.1744 12.514 39.0924 12.33C39.0104 12.146 38.9664 11.9473 38.9628 11.7459C38.9592 11.5445 38.9963 11.3445 39.0717 11.1577C39.1472 10.9709 39.2595 10.8013 39.4019 10.6588C39.5443 10.5164 39.714 10.4041 39.9008 10.3287C40.0876 10.2532 40.2876 10.2162 40.489 10.2197C40.6904 10.2233 40.8891 10.2674 41.0731 10.3493C41.2571 10.4313 41.4227 10.5495 41.56 10.6969L45.803 14.9389C46.0842 15.2202 46.2422 15.6017 46.2422 15.9994C46.2422 16.3971 46.0842 16.7786 45.803 17.0599L41.561 21.3029C41.4217 21.4422 41.2564 21.5528 41.0744 21.6282C40.8924 21.7036 40.6973 21.7425 40.5003 21.7425C40.3033 21.7426 40.1083 21.7038 39.9262 21.6285C39.7442 21.5531 39.5788 21.4427 39.4395 21.3034C39.3001 21.1641 39.1896 20.9988 39.1142 20.8168C39.0387 20.6348 38.9999 20.4397 38.9999 20.2427C38.9998 20.0457 39.0386 19.8507 39.1139 19.6686C39.1893 19.4866 39.2997 19.3212 39.439 19.1819L42.621 15.9999L39.44 12.8169Z" fill="#313037"/>
<path d="M37.62 43.6619C37.8098 43.715 37.9873 43.805 38.1423 43.9267C38.2973 44.0485 38.4268 44.1996 38.5234 44.3714C38.62 44.5432 38.6817 44.7323 38.7052 44.928C38.7286 45.1237 38.7133 45.3221 38.66 45.5119L34.229 61.2989C34.1216 61.682 33.8664 62.0067 33.5195 62.2017C33.1727 62.3966 32.7626 62.4458 32.3795 62.3384C31.9964 62.231 31.6716 61.9758 31.4767 61.6289C31.2817 61.2821 31.2326 60.872 31.34 60.4889L35.771 44.6999C35.8242 44.5102 35.9143 44.3328 36.036 44.1779C36.1578 44.023 36.3089 43.8936 36.4807 43.7971C36.6525 43.7006 36.8417 43.6389 37.0373 43.6156C37.233 43.5922 37.4313 43.6076 37.621 43.6609L37.62 43.6619ZM30.56 47.6969C30.8409 47.9781 30.9987 48.3594 30.9987 48.7569C30.9987 49.1544 30.8409 49.5356 30.56 49.8169L27.38 52.9999L30.562 56.1819C30.8432 56.4633 31.0012 56.8449 31.0011 57.2427C31.001 57.6406 30.8429 58.0221 30.5615 58.3034C30.2801 58.5847 29.8985 58.7426 29.5006 58.7425C29.1028 58.7424 28.7212 58.5843 28.44 58.3029L24.197 54.0599C23.9161 53.7786 23.7583 53.3974 23.7583 52.9999C23.7583 52.6024 23.9161 52.2211 24.197 51.9399L28.439 47.6969C28.5783 47.5575 28.7437 47.4469 28.9257 47.3715C29.1078 47.296 29.3029 47.2572 29.5 47.2572C29.697 47.2572 29.8922 47.296 30.0742 47.3715C30.2563 47.4469 30.4207 47.5575 30.56 47.6969ZM39.44 49.8169C39.2926 49.6796 39.1744 49.514 39.0924 49.33C39.0104 49.146 38.9664 48.9473 38.9628 48.7459C38.9592 48.5445 38.9963 48.3445 39.0717 48.1577C39.1472 47.9709 39.2595 47.8013 39.4019 47.6588C39.5443 47.5164 39.714 47.4041 39.9008 47.3287C40.0876 47.2532 40.2876 47.2162 40.489 47.2197C40.6904 47.2233 40.8891 47.2674 41.0731 47.3493C41.2571 47.4313 41.4227 47.5495 41.56 47.6969L45.803 51.9389C46.0842 52.2202 46.2422 52.6017 46.2422 52.9994C46.2422 53.3971 46.0842 53.7786 45.803 54.0599L41.561 58.3029C41.4217 58.4422 41.2564 58.5528 41.0744 58.6282C40.8924 58.7036 40.6973 58.7425 40.5003 58.7425C40.3033 58.7426 40.1083 58.7038 39.9262 58.6285C39.7442 58.5531 39.5788 58.4427 39.4395 58.3034C39.3001 58.1641 39.1896 57.9988 39.1142 57.8168C39.0387 57.6348 38.9999 57.4397 38.9999 57.2427C38.9998 57.0457 39.0386 56.8507 39.1139 56.6686C39.1893 56.4866 39.2997 56.3212 39.439 56.1819L42.621 52.9999L39.44 49.8169Z" fill="#313037"/>
<path d="M18.62 25.6619C18.8098 25.715 18.9873 25.805 19.1423 25.9267C19.2973 26.0485 19.4268 26.1996 19.5234 26.3714C19.62 26.5432 19.6817 26.7323 19.7052 26.928C19.7286 27.1237 19.7133 27.3221 19.66 27.5119L15.229 43.2989C15.1216 43.682 14.8664 44.0067 14.5195 44.2017C14.1727 44.3966 13.7626 44.4458 13.3795 44.3384C12.9964 44.231 12.6716 43.9758 12.4767 43.6289C12.2817 43.2821 12.2326 42.872 12.34 42.4889L16.771 26.6999C16.8242 26.5102 16.9143 26.3328 17.036 26.1779C17.1578 26.023 17.3089 25.8936 17.4807 25.7971C17.6525 25.7006 17.8417 25.6389 18.0373 25.6156C18.233 25.5922 18.4313 25.6076 18.621 25.6609L18.62 25.6619ZM11.56 29.6969C11.8409 29.9781 11.9987 30.3594 11.9987 30.7569C11.9987 31.1544 11.8409 31.5356 11.56 31.8169L8.37998 34.9999L11.562 38.1819C11.8432 38.4633 12.0012 38.8449 12.0011 39.2427C12.001 39.6406 11.8429 40.0221 11.5615 40.3034C11.2801 40.5847 10.8985 40.7426 10.5006 40.7425C10.1028 40.7424 9.72124 40.5843 9.43998 40.3029L5.19698 36.0599C4.91608 35.7786 4.7583 35.3974 4.7583 34.9999C4.7583 34.6024 4.91608 34.2211 5.19698 33.9399L9.43898 29.6969C9.57828 29.5575 9.74368 29.4469 9.92573 29.3715C10.1078 29.296 10.3029 29.2572 10.5 29.2572C10.697 29.2572 10.8922 29.296 11.0742 29.3715C11.2563 29.4469 11.4207 29.5575 11.56 29.6969ZM20.44 31.8169C20.2926 31.6796 20.1744 31.514 20.0924 31.33C20.0104 31.146 19.9664 30.9473 19.9628 30.7459C19.9592 30.5445 19.9963 30.3445 20.0717 30.1577C20.1472 29.9709 20.2595 29.8013 20.4019 29.6588C20.5443 29.5164 20.714 29.4041 20.9008 29.3287C21.0876 29.2532 21.2876 29.2162 21.489 29.2197C21.6904 29.2233 21.8891 29.2674 22.0731 29.3493C22.2571 29.4313 22.4227 29.5495 22.56 29.6969L26.803 33.9389C27.0842 34.2202 27.2422 34.6017 27.2422 34.9994C27.2422 35.3971 27.0842 35.7786 26.803 36.0599L22.561 40.3029C22.4217 40.4422 22.2564 40.5528 22.0744 40.6282C21.8924 40.7036 21.6973 40.7425 21.5003 40.7425C21.3033 40.7426 21.1083 40.7038 20.9262 40.6285C20.7442 40.5531 20.5788 40.4427 20.4395 40.3034C20.3001 40.1641 20.1896 39.9988 20.1142 39.8168C20.0387 39.6348 19.9999 39.4397 19.9999 39.2427C19.9998 39.0457 20.0386 38.8507 20.1139 38.6686C20.1893 38.4866 20.2997 38.3212 20.439 38.1819L23.621 34.9999L20.44 31.8169Z" fill="#313037"/>
<path d="M56.8617 26.0569C57.0515 26.11 57.229 26.2 57.384 26.3217C57.539 26.4435 57.6685 26.5946 57.7651 26.7664C57.8617 26.9382 57.9234 27.1274 57.9469 27.3231C57.9703 27.5188 57.955 27.7172 57.9017 27.9069L53.4707 43.6939C53.3633 44.077 53.1081 44.4018 52.7612 44.5967C52.4144 44.7917 52.0043 44.8408 51.6212 44.7334C51.2381 44.626 50.9133 44.3708 50.7184 44.024C50.5234 43.6771 50.4743 43.267 50.5817 42.8839L55.0127 27.0949C55.0659 26.9052 55.156 26.7278 55.2777 26.5729C55.3995 26.418 55.5506 26.2886 55.7224 26.1921C55.8942 26.0957 56.0834 26.034 56.279 26.0106C56.4746 25.9872 56.673 26.0026 56.8627 26.0559L56.8617 26.0569ZM49.8017 30.0919C50.0826 30.3732 50.2404 30.7544 50.2404 31.1519C50.2404 31.5494 50.0826 31.9307 49.8017 32.2119L46.6217 35.3949L49.8037 38.5769C50.0849 38.8583 50.2429 39.2399 50.2428 39.6378C50.2427 40.0356 50.0846 40.4172 49.8032 40.6984C49.5218 40.9797 49.1402 41.1376 48.7423 41.1375C48.3445 41.1374 47.9629 40.9793 47.6817 40.6979L43.4387 36.4549C43.1578 36.1737 43 35.7924 43 35.3949C43 34.9974 43.1578 34.6162 43.4387 34.3349L47.6807 30.0919C47.82 29.9525 47.9854 29.842 48.1674 29.7665C48.3495 29.6911 48.5446 29.6522 48.7417 29.6522C48.9387 29.6522 49.1339 29.6911 49.3159 29.7665C49.498 29.842 49.6624 29.9525 49.8017 30.0919ZM58.6817 32.2119C58.5343 32.0746 58.4161 31.909 58.3341 31.725C58.2521 31.541 58.2081 31.3424 58.2045 31.141C58.2009 30.9396 58.238 30.7395 58.3134 30.5527C58.3889 30.3659 58.5012 30.1963 58.6436 30.0538C58.786 29.9114 58.9557 29.7991 59.1425 29.7237C59.3293 29.6482 59.5293 29.6112 59.7307 29.6147C59.9321 29.6183 60.1308 29.6624 60.3148 29.7444C60.4988 29.8263 60.6644 29.9445 60.8017 30.0919L65.0447 34.3339C65.3259 34.6152 65.4839 34.9967 65.4839 35.3944C65.4839 35.7922 65.3259 36.1736 65.0447 36.4549L60.8027 40.6979C60.6634 40.8372 60.4981 40.9478 60.3161 41.0232C60.1341 41.0986 59.939 41.1375 59.742 41.1375C59.545 41.1376 59.35 41.0988 59.1679 41.0235C58.9859 40.9481 58.8205 40.8377 58.6812 40.6984C58.5418 40.5591 58.4313 40.3938 58.3559 40.2118C58.2804 40.0298 58.2416 39.8348 58.2416 39.6378C58.2415 39.4408 58.2803 39.2457 58.3556 39.0637C58.431 38.8816 58.5414 38.7162 58.6807 38.5769L61.8627 35.3949L58.6817 32.2119Z" fill="#313037"/>
</svg>
